<svg version="1.1" id="Layer_1" xmlns="http://www.w3.org/2000/svg" xmlns:xlink="http://www.w3.org/1999/xlink" x="0px" y="0px"
	 width="100%" viewBox="0 0 512 512" enable-background="new 0 0 512 512" xml:space="preserve">
<path fill="#FFFFFF" opacity="1.000000" stroke="none" 
	d="
M1.000000,305.000000 
	C1.000000,203.715332 1.000000,102.430672 1.000000,1.073005 
	C171.666656,1.073005 342.333313,1.073005 513.000000,1.073005 
	C513.000000,32.426121 513.000000,63.744404 512.650024,95.424011 
	C511.137665,95.199684 510.015686,94.509186 508.806885,94.044449 
	C495.125702,88.784584 481.409149,83.616074 467.745056,78.312431 
	C442.681915,68.584335 417.650452,58.774704 392.600403,49.012886 
	C371.356506,40.734283 350.105011,32.475151 328.635223,24.121172 
	C326.516052,25.841911 324.222961,27.691023 321.943573,29.556938 
	C313.187439,36.724792 304.359283,43.807358 295.705170,51.096443 
	C288.045105,57.548222 280.580505,64.232063 272.720734,70.978554 
	C266.487366,75.803734 260.562897,80.463821 254.308167,85.121696 
	C243.828735,93.403427 233.675339,101.682228 223.531525,109.972725 
	C212.871384,118.685234 202.202148,127.386757 191.570297,136.133682 
	C179.658249,145.933823 167.805573,155.806168 155.886215,165.597366 
	C145.503510,174.126266 135.022110,182.535370 124.663025,191.092682 
	C116.728355,197.647217 108.916420,204.350342 100.695297,211.024246 
	C98.087219,212.446701 95.853386,213.865494 93.577278,215.212860 
	C65.425232,231.877396 39.688587,251.646408 17.188192,275.434174 
	C9.413279,283.653961 1.951617,292.363464 2.661314,304.990051 
	C1.886088,305.001984 1.443044,305.000977 1.000000,305.000000 
z"/>
<path fill="#FFFFFF" opacity="1.000000" stroke="none" 
	d="
M513.000000,216.000000 
	C513.000000,314.951263 513.000000,413.902557 513.000000,512.926880 
	C342.333344,512.926880 171.666672,512.926880 1.000000,512.926880 
	C1.000000,486.578064 1.000000,460.257690 1.365120,433.523865 
	C2.917244,435.941498 4.158060,438.751434 5.282326,441.607208 
	C11.607733,457.674561 24.757532,466.893555 39.144741,474.465546 
	C61.133476,486.038208 84.507423,491.046265 109.555809,489.192505 
	C127.577690,487.858734 144.858765,484.071014 161.727432,477.932953 
	C183.550247,469.992249 203.917892,459.221222 222.418381,445.214203 
	C239.566956,432.230713 256.299683,418.695923 273.128754,405.294891 
	C275.349396,403.526550 277.056854,401.113708 279.363770,399.154114 
	C280.552673,398.903656 281.481323,398.628357 282.191528,398.073425 
	C290.755341,391.382141 299.280273,384.641174 307.828308,377.929596 
	C322.586823,366.341736 337.372650,354.788574 352.113464,343.178192 
	C368.675140,330.133636 385.268890,317.128357 401.714050,303.938080 
	C411.453339,296.126373 420.932373,287.990173 430.823120,279.887024 
	C437.945007,274.489075 444.772186,269.203979 451.946259,263.822052 
	C455.191956,261.586273 458.156006,259.529755 460.978851,257.294891 
	C478.336945,243.552307 495.663177,229.769470 513.000000,216.000000 
z"/>
<path fill="#E1E6E9" opacity="1.000000" stroke="none" 
	d="
M279.002014,398.999359 
	C277.056854,401.113708 275.349396,403.526550 273.128754,405.294891 
	C256.299683,418.695923 239.566956,432.230713 222.418381,445.214203 
	C203.917892,459.221222 183.550247,469.992249 161.727432,477.932953 
	C144.858765,484.071014 127.577690,487.858734 109.555809,489.192505 
	C84.507423,491.046265 61.133476,486.038208 39.144741,474.465546 
	C24.757532,466.893555 11.607733,457.674561 5.282326,441.607208 
	C4.158060,438.751434 2.917244,435.941498 1.365120,433.055206 
	C1.000000,431.933319 1.000000,430.866669 1.163860,429.306030 
	C1.218480,428.541412 1.109240,428.270691 1.000000,428.000000 
	C1.000000,388.645782 1.000000,349.291534 1.158613,309.365234 
	C1.391690,308.693146 1.545647,308.523926 1.528204,308.503906 
	C1.369127,308.321136 1.180207,308.164368 0.999999,308.000000 
	C1.000000,307.250000 1.000000,306.500000 1.000000,305.375000 
	C1.443044,305.000977 1.886088,305.001984 2.813894,305.342468 
	C4.500602,313.377167 8.439353,319.368103 14.072905,324.699219 
	C25.505756,335.518250 38.245342,344.235382 52.534840,350.827240 
	C66.084457,357.077789 80.398033,360.534332 95.101219,361.848999 
	C109.180420,363.107849 123.272163,361.618805 137.124680,358.776642 
	C162.962891,353.475342 186.584061,342.488251 209.072556,329.171417 
	C229.205643,317.249390 247.931824,303.257996 265.208771,287.388519 
	C268.202454,284.638733 271.710236,282.448669 275.085632,280.407410 
	C275.460571,285.461578 275.834930,290.105042 275.981415,294.755737 
	C276.484253,310.719360 276.902100,326.685608 277.362152,342.650604 
	C277.903381,361.433655 278.454895,380.216461 279.002014,398.999359 
z"/>
<path fill="#27A2DB" opacity="1.000000" stroke="none" 
	d="
M273.029633,70.813454 
	C280.580505,64.232063 288.045105,57.548222 295.705170,51.096443 
	C304.359283,43.807358 313.187439,36.724792 321.943573,29.556938 
	C324.222961,27.691023 326.516052,25.841911 328.635223,24.121172 
	C350.105011,32.475151 371.356506,40.734283 392.600403,49.012886 
	C417.650452,58.774704 442.681915,68.584335 467.745056,78.312431 
	C481.409149,83.616074 495.125702,88.784584 508.806885,94.044449 
	C510.015686,94.509186 511.137665,95.199684 512.650024,95.892670 
	C513.000000,96.000000 513.000000,96.500000 512.685425,96.882263 
	C501.528809,105.391579 490.704987,113.543022 479.839386,121.638397 
	C470.169678,128.842758 460.453674,135.984970 450.398621,143.114227 
	C404.276306,124.283218 358.524231,105.466278 312.743835,86.718521 
	C299.547668,81.314507 286.269958,76.109634 273.029633,70.813454 
z"/>
<path fill="#2D93BA" opacity="1.000000" stroke="none" 
	d="
M450.758087,143.154617 
	C460.453674,135.984970 470.169678,128.842758 479.839386,121.638397 
	C490.704987,113.543022 501.528809,105.391579 512.685425,97.132263 
	C513.000000,136.354233 513.000000,175.708450 513.000000,215.531342 
	C495.663177,229.769470 478.336945,243.552307 460.978851,257.294891 
	C458.156006,259.529755 455.191956,261.586273 451.999023,263.358521 
	C451.706757,224.964417 451.722534,186.936996 451.670044,148.909668 
	C451.667419,146.990891 451.075562,145.072952 450.758087,143.154617 
z"/>
<path fill="#FFFFFF" opacity="1.000000" stroke="none" 
	d="
M0.999999,308.250000 
	C1.180207,308.164368 1.369127,308.321136 1.528204,308.503906 
	C1.545647,308.523926 1.391690,308.693146 1.158613,308.896606 
	C1.000000,309.000000 1.000000,308.500000 0.999999,308.250000 
z"/>
<path fill="#FFFFFF" opacity="1.000000" stroke="none" 
	d="
M1.000000,428.250000 
	C1.109240,428.270691 1.218480,428.541412 1.163860,428.906067 
	C1.000000,429.000000 1.000000,428.500000 1.000000,428.250000 
z"/>
<path fill="#27A2DB" opacity="1.000000" stroke="none" 
	d="
M101.049896,210.987396 
	C108.916420,204.350342 116.728355,197.647217 124.663025,191.092682 
	C135.022110,182.535370 145.503510,174.126266 155.886215,165.597366 
	C167.805573,155.806168 179.658249,145.933823 191.570297,136.133682 
	C202.202148,127.386757 212.871384,118.685234 223.531525,109.972725 
	C233.675339,101.682228 243.828735,93.403427 254.525101,85.416931 
	C256.128662,86.193474 257.171356,86.705841 258.243378,87.146889 
	C313.948456,110.064606 369.659607,132.967438 425.345825,155.930771 
	C427.043121,156.630692 428.483154,157.954468 429.735840,159.131561 
	C409.614746,174.518311 389.805054,189.766342 369.985657,205.001678 
	C354.890961,216.605118 339.810974,228.228012 324.674957,239.777344 
	C308.372650,252.216629 292.012665,264.580292 275.370544,276.730469 
	C217.058792,254.651764 159.054352,232.819580 101.049896,210.987396 
z"/>
<path fill="#EBF0F3" opacity="1.000000" stroke="none" 
	d="
M100.695297,211.024246 
	C159.054352,232.819580 217.058792,254.651764 275.184570,277.078918 
	C275.197449,278.449310 275.088989,279.224670 274.980560,280.000061 
	C271.710236,282.448669 268.202454,284.638733 265.208771,287.388519 
	C247.931824,303.257996 229.205643,317.249390 209.072556,329.171417 
	C186.584061,342.488251 162.962891,353.475342 137.124680,358.776642 
	C123.272163,361.618805 109.180420,363.107849 95.101219,361.848999 
	C80.398033,360.534332 66.084457,357.077789 52.534840,350.827240 
	C38.245342,344.235382 25.505756,335.518250 14.072905,324.699219 
	C8.439353,319.368103 4.500602,313.377167 3.146075,305.329529 
	C1.951617,292.363464 9.413279,283.653961 17.188192,275.434174 
	C39.688587,251.646408 65.425232,231.877396 93.577278,215.212860 
	C95.853386,213.865494 98.087219,212.446701 100.695297,211.024246 
z"/>
<path fill="#F7D364" opacity="1.000000" stroke="none" 
	d="
M430.043121,158.987396 
	C428.483154,157.954468 427.043121,156.630692 425.345825,155.930771 
	C369.659607,132.967438 313.948456,110.064606 258.243378,87.146889 
	C257.171356,86.705841 256.128662,86.193474 254.855347,85.419144 
	C260.562897,80.463821 266.487366,75.803734 272.720734,70.978554 
	C286.269958,76.109634 299.547668,81.314507 312.743835,86.718521 
	C358.524231,105.466278 404.276306,124.283218 450.398621,143.114227 
	C451.075562,145.072952 451.667419,146.990891 451.670044,148.909668 
	C451.722534,186.936996 451.706757,224.964417 451.652100,263.455353 
	C444.772186,269.203979 437.945007,274.489075 430.746399,279.424683 
	C430.337372,254.656021 430.317383,230.236816 430.255951,205.817703 
	C430.216705,190.207520 430.116150,174.597488 430.043121,158.987396 
z"/>
<path fill="#2D93BA" opacity="1.000000" stroke="none" 
	d="
M429.735840,159.131561 
	C430.116150,174.597488 430.216705,190.207520 430.255951,205.817703 
	C430.317383,230.236816 430.337372,254.656021 430.451660,279.537537 
	C420.932373,287.990173 411.453339,296.126373 401.714050,303.938080 
	C385.268890,317.128357 368.675140,330.133636 352.113464,343.178192 
	C337.372650,354.788574 322.586823,366.341736 307.828308,377.929596 
	C299.280273,384.641174 290.755341,391.382141 282.191528,398.073425 
	C281.481323,398.628357 280.552673,398.903656 279.363770,399.154114 
	C278.454895,380.216461 277.903381,361.433655 277.362152,342.650604 
	C276.902100,326.685608 276.484253,310.719360 275.981415,294.755737 
	C275.834930,290.105042 275.460571,285.461578 275.085632,280.407410 
	C275.088989,279.224670 275.197449,278.449310 275.491852,277.325439 
	C292.012665,264.580292 308.372650,252.216629 324.674957,239.777344 
	C339.810974,228.228012 354.890961,216.605118 369.985657,205.001678 
	C389.805054,189.766342 409.614746,174.518311 429.735840,159.131561 
z"/>
</svg>