<svg version="1.1" id="Layer_1" xmlns="http://www.w3.org/2000/svg" xmlns:xlink="http://www.w3.org/1999/xlink" x="0px" y="0px"
	 width="100%" viewBox="0 0 512 512" enable-background="new 0 0 512 512" xml:space="preserve">
<path fill="#FFFFFF" opacity="1.000000" stroke="none" 
	d="
M513.000000,67.000000 
	C513.000000,215.599808 513.000000,364.199615 513.000000,513.000000 
	C344.642639,513.000000 176.285202,513.000000 7.571821,512.648438 
	C31.619078,500.530853 56.022282,488.764740 80.769928,477.024170 
	C82.034996,476.704041 82.991096,476.431122 83.870979,476.001923 
	C101.097481,467.598999 118.328217,459.204529 135.525299,450.741699 
	C139.763809,448.655884 143.886826,446.335388 148.341675,443.965302 
	C243.596359,348.853485 338.573029,253.899872 433.540894,158.937439 
	C434.827606,157.650803 436.003082,156.252930 437.494049,154.733551 
	C447.448669,144.799438 457.139740,135.038727 467.138550,125.105667 
	C478.123932,114.273048 488.886383,103.695564 499.418396,92.893364 
	C501.994934,90.250702 504.248352,87.086670 505.888489,83.784004 
	C508.586243,78.351852 510.661987,72.610809 513.000000,67.000000 
z"/>
<path fill="#FFFFFF" opacity="1.000000" stroke="none" 
	d="
M1.000002,506.000000 
	C1.000000,337.742432 1.000000,169.484879 1.000000,1.000000 
	C149.357330,1.000000 297.714783,1.000000 446.379578,1.353187 
	C439.725647,4.718035 431.545776,6.308668 426.046143,11.024785 
	C412.905640,22.293198 401.028229,35.034531 388.402069,47.372784 
	C378.485809,57.243870 368.808258,66.923302 358.836365,76.804413 
	C267.090973,168.441406 175.637543,259.874329 84.195641,351.318756 
	C79.368584,356.145935 74.639114,361.070648 69.561844,366.110626 
	C67.220726,370.393097 65.169823,374.508942 63.145390,378.637756 
	C54.854710,395.546753 46.558727,412.453217 38.312897,429.384064 
	C37.680405,430.682739 37.422859,432.164093 36.789806,433.868958 
	C26.649250,454.759399 16.743702,475.357880 6.737704,495.907471 
	C5.047004,499.379669 2.923528,502.641144 1.000002,506.000000 
z"/>
<path fill="#FF4D4C" opacity="1.000000" stroke="none" 
	d="
M388.640808,47.181129 
	C401.028229,35.034531 412.905640,22.293198 426.046143,11.024785 
	C431.545776,6.308668 439.725647,4.718035 446.843445,1.353187 
	C453.687653,1.000000 460.375275,1.000000 467.697510,1.356457 
	C471.914154,2.790470 475.496155,3.868025 478.757080,5.003660 
	C478.456696,6.713367 478.197998,8.425686 478.541443,10.007236 
	C481.977325,25.828865 480.683868,41.314610 470.298523,53.900928 
	C459.142914,67.420807 446.139648,79.416153 433.731812,92.039230 
	C433.520996,92.001717 433.097412,91.946564 432.955475,91.638565 
	C418.089294,76.614082 403.365051,61.897606 388.640808,47.181129 
z"/>
<path fill="#F33A39" opacity="1.000000" stroke="none" 
	d="
M433.942627,92.076752 
	C446.139648,79.416153 459.142914,67.420807 470.298523,53.900928 
	C480.683868,41.314610 481.977325,25.828865 478.541443,10.007236 
	C478.197998,8.425686 478.456696,6.713367 479.118927,5.052712 
	C493.200043,10.672244 502.783234,20.219334 508.671906,33.442066 
	C510.342468,37.193237 511.569519,41.141911 513.000000,45.000004 
	C513.000000,52.020947 513.000000,59.041897 513.000000,66.531418 
	C510.661987,72.610809 508.586243,78.351852 505.888489,83.784004 
	C504.248352,87.086670 501.994934,90.250702 499.418396,92.893364 
	C488.886383,103.695564 478.123932,114.273048 466.856567,124.919220 
	C455.492065,113.962341 444.717346,103.019547 433.942627,92.076752 
z"/>
<path fill="#393836" opacity="1.000000" stroke="none" 
	d="
M1.000002,506.497925 
	C2.923528,502.641144 5.047004,499.379669 6.737704,495.907471 
	C16.743702,475.357880 26.649250,454.759399 37.154221,433.872437 
	C44.772957,440.401520 51.826061,447.235535 58.989128,454.335144 
	C59.441898,455.045380 59.784702,455.489990 59.775337,455.978973 
	C58.481373,456.662964 57.409084,457.171722 56.616955,457.961456 
	C39.468948,475.058502 22.340071,492.174835 5.260693,509.340363 
	C4.275876,510.330139 3.743132,511.769745 3.000005,513.000000 
	C2.333341,512.568054 1.182289,512.218750 1.091805,511.688507 
	C0.831582,510.163452 1.000000,508.565277 1.000002,506.497925 
z"/>
<path fill="#1F1E1D" opacity="1.000000" stroke="none" 
	d="
M3.399998,513.000000 
	C3.743132,511.769745 4.275876,510.330139 5.260693,509.340363 
	C22.340071,492.174835 39.468948,475.058502 56.616955,457.961456 
	C57.409084,457.171722 58.481373,456.662964 60.067787,456.132385 
	C62.235500,457.765076 63.797932,459.251678 65.274590,460.819031 
	C70.341095,466.196960 75.377563,471.603180 80.425491,476.998596 
	C56.022282,488.764740 31.619078,500.530853 7.107937,512.648438 
	C5.933331,513.000000 4.866662,513.000000 3.399998,513.000000 
z"/>
<path fill="#FFFFFF" opacity="1.000000" stroke="none" 
	d="
M513.000000,44.531345 
	C511.569519,41.141911 510.342468,37.193237 508.671906,33.442066 
	C502.783234,20.219334 493.200043,10.672244 479.440063,4.994633 
	C475.496155,3.868025 471.914154,2.790470 468.166077,1.356457 
	C482.925873,1.000000 497.851776,1.000000 513.000000,1.000000 
	C513.000000,15.353463 513.000000,29.708073 513.000000,44.531345 
z"/>
<path fill="#FF911D" opacity="1.000000" stroke="none" 
	d="
M437.230469,154.906982 
	C436.003082,156.252930 434.827606,157.650803 433.540894,158.937439 
	C338.573029,253.899872 243.596359,348.853485 148.020493,443.840454 
	C138.884857,435.338135 130.349106,426.803131 121.982582,417.945496 
	C123.049248,416.639832 123.909317,415.619507 124.849426,414.679230 
	C219.098755,320.418549 313.353333,226.163101 407.619324,131.919067 
	C408.669373,130.869263 409.872742,129.972778 411.292786,129.168945 
	C420.130859,137.857758 428.680664,146.382370 437.230469,154.906982 
z"/>
<path fill="#F4C892" opacity="1.000000" stroke="none" 
	d="
M121.813362,418.268158 
	C130.349106,426.803131 138.884857,435.338135 147.741776,443.997955 
	C143.886826,446.335388 139.763809,448.655884 135.525299,450.741699 
	C118.328217,459.204529 101.097481,467.598999 83.870979,476.001923 
	C82.991096,476.431122 82.034996,476.704041 80.769936,477.024139 
	C75.377563,471.603180 70.341095,466.196960 65.274590,460.819031 
	C63.797932,459.251678 62.235500,457.765076 60.419956,456.088013 
	C59.784702,455.489990 59.441898,455.045380 59.298737,454.189331 
	C74.263756,439.092407 89.019722,424.397461 103.809822,409.736938 
	C105.211800,408.347260 106.827850,407.173523 108.648849,405.981140 
	C113.239906,410.131226 117.526634,414.199677 121.813362,418.268158 
z"/>
<path fill="#13B9C0" opacity="1.000000" stroke="none" 
	d="
M437.494019,154.733551 
	C428.680664,146.382370 420.130859,137.857758 411.202332,128.845398 
	C408.551575,125.924858 406.279510,123.492081 404.306183,120.907463 
	C414.102417,111.152603 423.599915,101.549591 433.097412,91.946564 
	C433.097412,91.946564 433.520996,92.001717 433.731812,92.039230 
	C444.717346,103.019547 455.492065,113.962341 466.548798,125.091591 
	C457.139740,135.038727 447.448669,144.799438 437.494019,154.733551 
z"/>
<path fill="#FFBF14" opacity="1.000000" stroke="none" 
	d="
M69.864220,365.949982 
	C74.639114,361.070648 79.368584,356.145935 84.195641,351.318756 
	C175.637543,259.874329 267.090973,168.441406 359.109375,77.019211 
	C368.429657,85.902504 377.182526,94.772690 385.554047,103.771103 
	C383.438782,105.440338 381.620697,106.897156 379.983002,108.534393 
	C286.855194,201.635147 193.743744,294.752289 100.616333,387.853424 
	C99.097275,389.372101 97.401596,390.714111 95.505287,391.969727 
	C86.769569,383.183899 78.316895,374.566956 69.864220,365.949982 
z"/>
<path fill="#FED9A7" opacity="1.000000" stroke="none" 
	d="
M69.561844,366.110626 
	C78.316895,374.566956 86.769569,383.183899 95.673492,392.260254 
	C100.197990,397.112915 104.271255,401.506195 108.344513,405.899506 
	C106.827850,407.173523 105.211800,408.347260 103.809822,409.736938 
	C89.019722,424.397461 74.263756,439.092407 59.188774,453.923706 
	C51.826061,447.235535 44.772957,440.401520 37.355438,433.564026 
	C37.422859,432.164093 37.680405,430.682739 38.312897,429.384064 
	C46.558727,412.453217 54.854710,395.546753 63.145390,378.637756 
	C65.169823,374.508942 67.220726,370.393097 69.561844,366.110626 
z"/>
<path fill="#22D8DD" opacity="1.000000" stroke="none" 
	d="
M385.935394,103.642868 
	C377.182526,94.772690 368.429657,85.902504 359.403748,76.817520 
	C368.808258,66.923302 378.485809,57.243870 388.402069,47.372787 
	C403.365051,61.897606 418.089294,76.614082 432.955475,91.638565 
	C423.599915,101.549591 414.102417,111.152603 403.997864,120.765106 
	C397.572357,115.064011 391.753876,109.353432 385.935394,103.642868 
z"/>
<path fill="#FFB123" opacity="1.000000" stroke="none" 
	d="
M385.554047,103.771103 
	C391.753876,109.353432 397.572357,115.064011 403.699158,120.916946 
	C406.279510,123.492081 408.551575,125.924858 410.914062,128.681183 
	C409.872742,129.972778 408.669373,130.869263 407.619324,131.919067 
	C313.353333,226.163101 219.098755,320.418549 124.849426,414.679230 
	C123.909317,415.619507 123.049248,416.639832 121.982582,417.945496 
	C117.526634,414.199677 113.239906,410.131226 108.648849,405.981140 
	C104.271255,401.506195 100.197990,397.112915 95.956528,392.429077 
	C97.401596,390.714111 99.097275,389.372101 100.616333,387.853424 
	C193.743744,294.752289 286.855194,201.635147 379.983002,108.534393 
	C381.620697,106.897156 383.438782,105.440338 385.554047,103.771103 
z"/>
</svg>