<svg version="1.1" id="Layer_1" xmlns="http://www.w3.org/2000/svg" xmlns:xlink="http://www.w3.org/1999/xlink" x="0px" y="0px"
	 width="100%" viewBox="0 0 512 512" enable-background="new 0 0 512 512" xml:space="preserve">
<path fill="#FFFFFF" opacity="1.000000" stroke="none" 
	d="
M1.000001,423.000000 
	C1.000000,282.385956 1.000000,141.771912 1.000000,1.078931 
	C171.550186,1.078931 342.100403,1.078931 513.000000,1.078931 
	C513.000000,74.022270 513.000000,147.045105 512.668579,220.399918 
	C511.279755,219.166245 510.559052,217.118134 509.113159,216.108887 
	C493.181671,204.988297 477.156250,194.001648 461.119049,183.033203 
	C439.152527,168.009521 417.166931,153.013641 395.165375,138.041351 
	C371.683319,122.061584 348.172455,106.124214 324.675507,90.166359 
	C308.064392,78.884987 291.477509,67.567711 274.830475,56.339626 
	C270.587189,53.477631 266.297333,53.152077 261.488098,55.749577 
	C257.075867,58.132664 256.979736,61.736710 256.983826,65.798927 
	C257.013794,95.620598 257.000000,125.442322 257.000000,155.264023 
	C257.000000,157.043121 257.000000,158.822235 257.000000,160.497910 
	C251.889465,161.037079 247.312958,161.391190 242.775513,162.025009 
	C232.902664,163.404129 222.932343,164.385162 213.211807,166.495834 
	C188.963425,171.761047 166.307281,181.183517 144.789993,193.563507 
	C125.869453,204.449432 109.255478,218.281982 93.548080,233.189804 
	C86.056358,240.300140 79.739464,248.658310 72.980171,256.528320 
	C58.521175,273.363342 46.940826,292.131226 36.755875,311.744598 
	C26.816116,330.885864 18.581648,350.804962 13.095114,371.685089 
	C9.499957,385.367157 7.037875,399.344879 3.950729,413.163940 
	C3.206347,416.496094 1.996040,419.724091 1.000001,423.000000 
z"/>
<path fill="#FFFFFF" opacity="1.000000" stroke="none" 
	d="
M513.000000,229.000000 
	C513.000000,323.618195 513.000000,418.236420 513.000000,512.927307 
	C342.333344,512.927307 171.666672,512.927307 1.000000,512.927307 
	C1.000000,493.584320 1.000000,474.260834 1.337427,454.575623 
	C5.015889,458.936432 9.717290,461.061981 14.202362,459.877594 
	C19.303782,458.530518 22.178333,454.628632 23.068157,448.707611 
	C23.520250,445.699280 24.390928,442.651215 25.649466,439.883514 
	C33.299419,423.060272 45.108536,409.050049 57.789677,396.075623 
	C71.157310,382.398834 85.674232,369.778534 100.288300,357.404419 
	C116.912422,343.328369 135.271591,331.572845 154.461227,321.323700 
	C178.142960,308.675323 202.928284,298.618958 229.395065,293.379639 
	C238.311951,291.614471 247.414307,290.786377 257.000000,289.450836 
	C257.000000,292.280823 257.000000,294.074280 257.000000,295.867767 
	C257.000000,325.530334 257.048187,355.193054 256.946716,384.855286 
	C256.931946,389.180023 258.101135,392.544006 262.067719,394.551025 
	C266.331787,396.708527 270.424988,396.816437 274.594086,393.947845 
	C301.237610,375.615265 327.929077,357.352234 354.628326,339.100769 
	C376.603088,324.078949 398.578247,309.057373 420.611420,294.121552 
	C448.044800,275.525085 475.586304,257.087585 502.948792,238.387833 
	C506.690338,235.830887 509.668457,232.156845 513.000000,229.000000 
z"/>
<path fill="#2196F3" opacity="1.000000" stroke="none" 
	d="
M513.000000,228.555832 
	C509.668457,232.156845 506.690338,235.830887 502.948792,238.387833 
	C475.586304,257.087585 448.044800,275.525085 420.611420,294.121552 
	C398.578247,309.057373 376.603088,324.078949 354.628326,339.100769 
	C327.929077,357.352234 301.237610,375.615265 274.594086,393.947845 
	C270.424988,396.816437 266.331787,396.708527 262.067719,394.551025 
	C258.101135,392.544006 256.931946,389.180023 256.946716,384.855286 
	C257.048187,355.193054 257.000000,325.530334 257.000000,295.867767 
	C257.000000,294.074280 257.000000,292.280823 257.000000,289.450836 
	C247.414307,290.786377 238.311951,291.614471 229.395065,293.379639 
	C202.928284,298.618958 178.142960,308.675323 154.461227,321.323700 
	C135.271591,331.572845 116.912422,343.328369 100.288300,357.404419 
	C85.674232,369.778534 71.157310,382.398834 57.789677,396.075623 
	C45.108536,409.050049 33.299419,423.060272 25.649466,439.883514 
	C24.390928,442.651215 23.520250,445.699280 23.068157,448.707611 
	C22.178333,454.628632 19.303782,458.530518 14.202362,459.877594 
	C9.717290,461.061981 5.015889,458.936432 1.337427,454.106934 
	C1.000000,446.312408 1.000000,438.624847 1.345387,430.322083 
	C1.460516,428.137909 1.230258,426.568970 1.000000,425.000000 
	C1.000000,424.555542 1.000000,424.111115 1.000001,423.333313 
	C1.996040,419.724091 3.206347,416.496094 3.950729,413.163940 
	C7.037875,399.344879 9.499957,385.367157 13.095114,371.685089 
	C18.581648,350.804962 26.816116,330.885864 36.755875,311.744598 
	C46.940826,292.131226 58.521175,273.363342 72.980171,256.528320 
	C79.739464,248.658310 86.056358,240.300140 93.548080,233.189804 
	C109.255478,218.281982 125.869453,204.449432 144.789993,193.563507 
	C166.307281,181.183517 188.963425,171.761047 213.211807,166.495834 
	C222.932343,164.385162 232.902664,163.404129 242.775513,162.025009 
	C247.312958,161.391190 251.889465,161.037079 257.000000,160.497910 
	C257.000000,158.822235 257.000000,157.043121 257.000000,155.264023 
	C257.000000,125.442322 257.013794,95.620598 256.983826,65.798927 
	C256.979736,61.736710 257.075867,58.132664 261.488098,55.749577 
	C266.297333,53.152077 270.587189,53.477631 274.830475,56.339626 
	C291.477509,67.567711 308.064392,78.884987 324.675507,90.166359 
	C348.172455,106.124214 371.683319,122.061584 395.165375,138.041351 
	C417.166931,153.013641 439.152527,168.009521 461.119049,183.033203 
	C477.156250,194.001648 493.181671,204.988297 509.113159,216.108887 
	C510.559052,217.118134 511.279755,219.166245 512.668579,220.865952 
	C513.000000,223.370560 513.000000,225.741104 513.000000,228.555832 
z"/>
<path fill="#FFFFFF" opacity="1.000000" stroke="none" 
	d="
M1.000000,425.416656 
	C1.230258,426.568970 1.460516,428.137909 1.345387,429.853455 
	C1.000000,428.611115 1.000000,427.222198 1.000000,425.416656 
z"/>
</svg>