<svg version="1.1" id="Layer_1" xmlns="http://www.w3.org/2000/svg" xmlns:xlink="http://www.w3.org/1999/xlink" x="0px" y="0px"
	 width="100%" viewBox="0 0 512 512" enable-background="new 0 0 512 512" xml:space="preserve">
<path fill="#000000" opacity="1.000000" stroke="none" 
	d="
M300.000000,513.000000 
	C200.024277,513.000000 100.548546,513.000000 1.036411,513.000000 
	C1.036411,342.399261 1.036411,171.798492 1.036411,1.098866 
	C171.559067,1.098866 342.118225,1.098866 512.838684,1.098866 
	C512.838684,171.666550 512.838684,342.333252 512.838684,513.000000 
	C442.131805,513.000000 371.315887,513.000000 300.000000,513.000000 
M182.441925,406.042206 
	C221.246109,416.437073 260.050293,426.831970 298.971924,437.258301 
	C299.417023,436.006592 299.743103,435.254974 299.953857,434.472260 
	C304.276489,418.420898 308.561310,402.359344 312.908203,386.314606 
	C315.156158,378.017059 319.337585,375.682861 327.801819,377.872345 
	C331.181091,378.746460 334.551910,379.653534 337.925323,380.550262 
	C351.388611,384.129181 364.851410,387.709869 378.685120,391.388489 
	C401.257111,307.144806 423.732391,223.262054 446.292786,139.061691 
	C423.151947,132.887085 400.541046,126.795616 377.868103,120.944580 
	C376.463013,120.581978 374.184479,121.692970 372.961823,122.821808 
	C355.568481,138.880783 331.688965,141.753006 311.036682,130.128922 
	C310.069977,129.584808 309.040588,129.151947 307.568207,128.438461 
	C304.398041,131.788376 301.424652,135.163666 298.201691,138.280945 
	C293.442963,142.883682 287.688751,143.009323 283.530792,138.835632 
	C279.545959,134.835693 279.761871,128.739868 284.198181,124.132614 
	C287.398987,120.808441 290.758820,117.637367 293.587860,114.850937 
	C291.241394,109.252907 289.390015,104.269882 287.043732,99.531944 
	C286.170502,97.768578 284.369690,95.733826 282.602264,95.252014 
	C247.962402,85.809013 213.266800,76.570366 178.578094,67.306778 
	C169.844299,64.974419 161.094940,62.700283 152.108139,60.335022 
	C123.902161,165.601456 95.862534,270.247040 67.717514,375.285980 
	C105.955254,385.559265 143.796326,395.725952 182.441925,406.042206 
M237.500000,493.001404 
	C305.565216,493.001404 373.630432,493.001404 441.817474,493.001404 
	C441.817474,406.909393 441.817474,321.495331 441.817474,236.081253 
	C440.841980,237.422836 440.308228,238.899475 439.902283,240.410431 
	C425.281311,294.830048 410.630035,349.241608 396.135590,403.694916 
	C394.874756,408.431610 392.365479,411.545746 388.211395,413.924225 
	C363.241821,428.220917 338.309082,442.582977 313.446381,457.064453 
	C309.395966,459.423615 305.531067,459.830475 301.068848,458.622681 
	C258.554474,447.115356 216.014679,435.701935 173.475754,424.285461 
	C161.637848,421.108429 149.778580,418.011017 137.662415,414.806519 
	C137.662415,441.124420 137.662415,466.957611 137.662415,493.001404 
	C170.870117,493.001404 203.685059,493.001404 237.500000,493.001404 
M355.595459,67.910637 
	C366.165619,76.594872 378.856293,77.674744 389.277496,70.776672 
	C398.954285,64.371361 403.539429,52.069977 400.382812,40.982376 
	C397.235413,29.927160 387.855469,22.065266 376.635712,21.078430 
	C365.574646,20.105549 354.968628,26.065321 349.975983,36.059135 
	C344.713898,46.592331 346.537018,57.777157 355.595459,67.910637 
M366.323853,97.740685 
	C365.812317,96.581757 365.507874,94.570030 364.759033,94.388161 
	C343.969238,89.338829 332.012238,75.922157 327.436829,55.414635 
	C313.427094,58.796089 303.189941,74.464539 305.405151,89.056282 
	C307.614410,103.609070 317.707520,114.262566 331.668915,116.778244 
	C345.656067,119.298569 358.762543,112.314133 366.323853,97.740685 
M357.572540,406.493195 
	C348.512299,404.056946 339.452057,401.620697 330.096283,399.104980 
	C327.484711,408.978760 325.016632,418.309967 322.221771,428.876648 
	C334.945831,421.499756 346.419464,414.856293 357.864136,408.163269 
	C358.148743,407.996857 358.112701,407.282104 357.572540,406.493195 
z"/>
<path fill="#FED98E" opacity="1.000000" stroke="none" 
	d="
M182.039673,405.967407 
	C143.796326,395.725952 105.955254,385.559265 67.717514,375.285980 
	C95.862534,270.247040 123.902161,165.601456 152.108139,60.335022 
	C161.094940,62.700283 169.844299,64.974419 178.578094,67.306778 
	C213.266800,76.570366 247.962402,85.809013 282.602264,95.252014 
	C284.369690,95.733826 286.170502,97.768578 287.043732,99.531944 
	C289.390015,104.269882 291.241394,109.252907 293.587860,114.850937 
	C290.758820,117.637367 287.398987,120.808441 284.198181,124.132614 
	C279.761871,128.739868 279.545959,134.835693 283.530792,138.835632 
	C287.688751,143.009323 293.442963,142.883682 298.201691,138.280945 
	C301.424652,135.163666 304.398041,131.788376 307.568207,128.438461 
	C309.040588,129.151947 310.069977,129.584808 311.036682,130.128922 
	C331.688965,141.753006 355.568481,138.880783 372.961823,122.821808 
	C374.184479,121.692970 376.463013,120.581978 377.868103,120.944580 
	C400.541046,126.795616 423.151947,132.887085 446.292786,139.061691 
	C423.732391,223.262054 401.257111,307.144806 378.685120,391.388489 
	C364.851410,387.709869 351.388611,384.129181 337.925323,380.550262 
	C334.551910,379.653534 331.181091,378.746460 327.801819,377.872345 
	C319.337585,375.682861 315.156158,378.017059 312.908203,386.314606 
	C308.561310,402.359344 304.276489,418.420898 299.953857,434.472260 
	C299.743103,435.254974 299.417023,436.006592 298.971924,437.258301 
	C260.050293,426.831970 221.246109,416.437073 182.039673,405.967407 
M232.037582,206.372589 
	C276.511017,218.304092 320.980865,230.249008 365.461761,242.152573 
	C372.066711,243.920120 377.567200,241.164749 378.972900,235.589645 
	C380.460205,229.690857 377.412720,224.915268 370.749573,222.935638 
	C366.608276,221.705231 362.414154,220.651718 358.239349,219.535110 
	C297.377380,203.256592 236.517090,186.971756 175.648605,170.717529 
	C169.092728,168.966843 163.632797,171.749863 162.158737,177.401688 
	C160.659302,183.150726 163.987823,188.219803 170.535629,189.972473 
	C190.767441,195.387955 211.010254,200.762405 232.037582,206.372589 
M311.826843,248.756470 
	C283.571594,241.175476 255.317429,233.590515 227.060776,226.014786 
	C206.508835,220.504730 185.948944,215.024261 165.403687,209.489426 
	C161.051437,208.316956 156.560013,208.373764 154.174301,212.339645 
	C152.498520,215.125412 151.357346,219.704834 152.535095,222.340347 
	C153.833923,225.246857 157.753967,227.950363 161.049240,228.851334 
	C211.556259,242.660477 262.145538,256.169006 312.721161,269.726959 
	C327.333038,273.644012 341.941589,277.577026 356.594574,281.335358 
	C361.890198,282.693665 366.759369,279.795013 368.448395,274.782074 
	C370.113983,269.838654 367.708771,264.686066 362.662567,262.514709 
	C361.445801,261.991180 360.164642,261.591614 358.882568,261.249451 
	C343.465271,257.134827 328.042267,253.041733 311.826843,248.756470 
M143.909195,264.544006 
	C145.784241,265.556122 147.549576,266.966766 149.551529,267.517883 
	C167.142044,272.360443 184.761902,277.098328 202.401566,281.759430 
	C209.003174,283.503845 214.540955,280.634064 215.937683,275.041840 
	C217.399612,269.188507 214.343002,264.266632 207.659149,262.431122 
	C190.064758,257.599304 172.434631,252.896271 154.795761,248.228699 
	C150.333084,247.047791 146.088333,247.537308 143.126572,251.574081 
	C140.104218,255.693405 140.312851,259.914612 143.909195,264.544006 
M240.504318,280.449463 
	C239.105896,284.837341 239.621399,289.204559 243.571716,291.549500 
	C246.233414,293.129517 250.205643,293.772003 253.244629,293.146942 
	C257.748810,292.220459 259.941742,288.233643 259.751556,283.673126 
	C259.561768,279.121460 257.005585,275.919800 252.538544,274.509277 
	C248.071426,273.098724 244.283401,274.822479 240.504318,280.449463 
z"/>
<path fill="#FEC044" opacity="1.000000" stroke="none" 
	d="
M237.000000,493.001404 
	C203.685059,493.001404 170.870117,493.001404 137.662415,493.001404 
	C137.662415,466.957611 137.662415,441.124420 137.662415,414.806519 
	C149.778580,418.011017 161.637848,421.108429 173.475754,424.285461 
	C216.014679,435.701935 258.554474,447.115356 301.068848,458.622681 
	C305.531067,459.830475 309.395966,459.423615 313.446381,457.064453 
	C338.309082,442.582977 363.241821,428.220917 388.211395,413.924225 
	C392.365479,411.545746 394.874756,408.431610 396.135590,403.694916 
	C410.630035,349.241608 425.281311,294.830048 439.902283,240.410431 
	C440.308228,238.899475 440.841980,237.422836 441.817474,236.081253 
	C441.817474,321.495331 441.817474,406.909393 441.817474,493.001404 
	C373.630432,493.001404 305.565216,493.001404 237.000000,493.001404 
z"/>
<path fill="#FD5C7C" opacity="1.000000" stroke="none" 
	d="
M355.340881,67.660446 
	C346.537018,57.777157 344.713898,46.592331 349.975983,36.059135 
	C354.968628,26.065321 365.574646,20.105549 376.635712,21.078430 
	C387.855469,22.065266 397.235413,29.927160 400.382812,40.982376 
	C403.539429,52.069977 398.954285,64.371361 389.277496,70.776672 
	C378.856293,77.674744 366.165619,76.594872 355.340881,67.660446 
z"/>
<path fill="#FC5C7C" opacity="1.000000" stroke="none" 
	d="
M366.191345,98.096283 
	C358.762543,112.314133 345.656067,119.298569 331.668915,116.778244 
	C317.707520,114.262566 307.614410,103.609070 305.405151,89.056282 
	C303.189941,74.464539 313.427094,58.796089 327.436829,55.414635 
	C332.012238,75.922157 343.969238,89.338829 364.759033,94.388161 
	C365.507874,94.570030 365.812317,96.581757 366.191345,98.096283 
z"/>
<path fill="#F9C866" opacity="1.000000" stroke="none" 
	d="
M357.899353,406.658142 
	C358.112701,407.282104 358.148743,407.996857 357.864136,408.163269 
	C346.419464,414.856293 334.945831,421.499756 322.221771,428.876648 
	C325.016632,418.309967 327.484711,408.978760 330.096283,399.104980 
	C339.452057,401.620697 348.512299,404.056946 357.899353,406.658142 
z"/>
<path fill="#030302" opacity="1.000000" stroke="none" 
	d="
M231.643188,206.262695 
	C211.010254,200.762405 190.767441,195.387955 170.535629,189.972473 
	C163.987823,188.219803 160.659302,183.150726 162.158737,177.401688 
	C163.632797,171.749863 169.092728,168.966843 175.648605,170.717529 
	C236.517090,186.971756 297.377380,203.256592 358.239349,219.535110 
	C362.414154,220.651718 366.608276,221.705231 370.749573,222.935638 
	C377.412720,224.915268 380.460205,229.690857 378.972900,235.589645 
	C377.567200,241.164749 372.066711,243.920120 365.461761,242.152573 
	C320.980865,230.249008 276.511017,218.304092 231.643188,206.262695 
z"/>
<path fill="#030302" opacity="1.000000" stroke="none" 
	d="
M312.223785,248.849762 
	C328.042267,253.041733 343.465271,257.134827 358.882568,261.249451 
	C360.164642,261.591614 361.445801,261.991180 362.662567,262.514709 
	C367.708771,264.686066 370.113983,269.838654 368.448395,274.782074 
	C366.759369,279.795013 361.890198,282.693665 356.594574,281.335358 
	C341.941589,277.577026 327.333038,273.644012 312.721161,269.726959 
	C262.145538,256.169006 211.556259,242.660477 161.049240,228.851334 
	C157.753967,227.950363 153.833923,225.246857 152.535095,222.340347 
	C151.357346,219.704834 152.498520,215.125412 154.174301,212.339645 
	C156.560013,208.373764 161.051437,208.316956 165.403687,209.489426 
	C185.948944,215.024261 206.508835,220.504730 227.060776,226.014786 
	C255.317429,233.590515 283.571594,241.175476 312.223785,248.849762 
z"/>
<path fill="#030302" opacity="1.000000" stroke="none" 
	d="
M143.642929,264.269775 
	C140.312851,259.914612 140.104218,255.693405 143.126572,251.574081 
	C146.088333,247.537308 150.333084,247.047791 154.795761,248.228699 
	C172.434631,252.896271 190.064758,257.599304 207.659149,262.431122 
	C214.343002,264.266632 217.399612,269.188507 215.937683,275.041840 
	C214.540955,280.634064 209.003174,283.503845 202.401566,281.759430 
	C184.761902,277.098328 167.142044,272.360443 149.551529,267.517883 
	C147.549576,266.966766 145.784241,265.556122 143.642929,264.269775 
z"/>
<path fill="#070604" opacity="1.000000" stroke="none" 
	d="
M240.685211,280.096252 
	C244.283401,274.822479 248.071426,273.098724 252.538544,274.509277 
	C257.005585,275.919800 259.561768,279.121460 259.751556,283.673126 
	C259.941742,288.233643 257.748810,292.220459 253.244629,293.146942 
	C250.205643,293.772003 246.233414,293.129517 243.571716,291.549500 
	C239.621399,289.204559 239.105896,284.837341 240.685211,280.096252 
z"/>
</svg>