<svg version="1.1" id="Layer_1" xmlns="http://www.w3.org/2000/svg" xmlns:xlink="http://www.w3.org/1999/xlink" x="0px" y="0px"
	 width="100%" viewBox="0 0 512 512" enable-background="new 0 0 512 512" xml:space="preserve">
<path fill="#FFFFFF" opacity="1.000000" stroke="none" 
	d="
M1.000000,219.000000 
	C1.000000,146.360458 1.000000,73.720932 1.000000,1.040697 
	C171.575790,1.040697 342.151611,1.040697 513.000000,1.040697 
	C513.000000,143.022522 513.000000,285.045227 512.633911,427.347473 
	C511.490662,421.448578 511.215240,415.155609 509.835999,409.114655 
	C506.578491,394.847504 503.087921,380.618988 499.164856,366.521423 
	C490.875580,336.733856 477.447510,309.236572 460.765778,283.315002 
	C447.021484,261.957977 430.896484,242.516846 411.949860,225.564224 
	C403.891937,218.354340 395.562897,211.357178 386.786591,205.058182 
	C364.734009,189.230438 340.729584,177.016113 314.411316,170.177017 
	C300.254272,166.498184 285.632355,164.581238 271.188934,162.047409 
	C266.557770,161.234955 261.826477,160.993042 257.000000,160.474960 
	C257.000000,128.568115 256.955017,96.925987 257.052979,65.284294 
	C257.066254,60.992130 256.109039,57.585636 252.054916,55.518757 
	C247.775162,53.336849 243.666046,53.127209 239.527969,55.967255 
	C227.283463,64.370918 214.969864,72.673882 202.717743,81.066513 
	C181.027756,95.924026 159.406921,110.882828 137.677338,125.682083 
	C108.002991,145.892227 78.221489,165.945099 48.549973,186.159409 
	C32.630764,197.004669 16.845636,208.046738 1.000000,219.000000 
z"/>
<path fill="#FFFFFF" opacity="1.000000" stroke="none" 
	d="
M513.000000,454.000000 
	C513.000000,473.656586 513.000000,493.313141 513.000000,512.984863 
	C342.431030,512.984863 171.862076,512.984863 1.000000,512.984863 
	C1.000000,419.312653 1.000000,325.624969 1.327181,231.566345 
	C11.366164,238.115311 20.985792,245.169189 30.808552,251.927841 
	C52.730080,267.011261 74.727013,281.985596 96.741287,296.933594 
	C123.205864,314.903412 149.743378,332.765808 176.205917,350.738617 
	C197.272369,365.046600 218.263184,379.465881 239.313522,393.797638 
	C243.085480,396.365692 247.154129,396.976013 251.367767,394.842560 
	C255.603928,392.697662 257.158905,389.446442 257.118805,384.487213 
	C256.878967,354.837677 257.000000,325.185272 257.000000,295.533813 
	C257.000000,293.767487 257.000000,292.001190 257.000000,289.597015 
	C260.967682,290.129364 264.216888,290.433868 267.415039,291.018005 
	C278.958008,293.126282 290.738586,294.441406 301.967163,297.665863 
	C332.770233,306.511414 361.212402,320.617432 387.859283,338.400055 
	C407.569275,351.553375 426.334076,365.992462 442.984192,382.793762 
	C455.833130,395.759369 467.799042,409.705475 479.123474,424.032959 
	C484.966095,431.424896 490.210724,439.727814 491.285065,449.890076 
	C491.591125,452.785065 494.117004,456.249359 496.638611,457.946136 
	C502.711517,462.032532 506.257385,460.847260 513.000000,454.000000 
z"/>
<path fill="#2196F3" opacity="1.000000" stroke="none" 
	d="
M513.000000,453.531342 
	C506.257385,460.847260 502.711517,462.032532 496.638611,457.946136 
	C494.117004,456.249359 491.591125,452.785065 491.285065,449.890076 
	C490.210724,439.727814 484.966095,431.424896 479.123474,424.032959 
	C467.799042,409.705475 455.833130,395.759369 442.984192,382.793762 
	C426.334076,365.992462 407.569275,351.553375 387.859283,338.400055 
	C361.212402,320.617432 332.770233,306.511414 301.967163,297.665863 
	C290.738586,294.441406 278.958008,293.126282 267.415039,291.018005 
	C264.216888,290.433868 260.967682,290.129364 257.000000,289.597015 
	C257.000000,292.001190 257.000000,293.767487 257.000000,295.533813 
	C257.000000,325.185272 256.878967,354.837677 257.118805,384.487213 
	C257.158905,389.446442 255.603928,392.697662 251.367767,394.842560 
	C247.154129,396.976013 243.085480,396.365692 239.313522,393.797638 
	C218.263184,379.465881 197.272369,365.046600 176.205917,350.738617 
	C149.743378,332.765808 123.205864,314.903412 96.741287,296.933594 
	C74.727013,281.985596 52.730080,267.011261 30.808552,251.927841 
	C20.985792,245.169189 11.366164,238.115311 1.327181,231.097687 
	C1.000000,227.307098 1.000000,223.614182 1.000000,219.460632 
	C16.845636,208.046738 32.630764,197.004669 48.549973,186.159409 
	C78.221489,165.945099 108.002991,145.892227 137.677338,125.682083 
	C159.406921,110.882828 181.027756,95.924026 202.717743,81.066513 
	C214.969864,72.673882 227.283463,64.370918 239.527969,55.967255 
	C243.666046,53.127209 247.775162,53.336849 252.054916,55.518757 
	C256.109039,57.585636 257.066254,60.992130 257.052979,65.284294 
	C256.955017,96.925987 257.000000,128.568115 257.000000,160.474960 
	C261.826477,160.993042 266.557770,161.234955 271.188934,162.047409 
	C285.632355,164.581238 300.254272,166.498184 314.411316,170.177017 
	C340.729584,177.016113 364.734009,189.230438 386.786591,205.058182 
	C395.562897,211.357178 403.891937,218.354340 411.949860,225.564224 
	C430.896484,242.516846 447.021484,261.957977 460.765778,283.315002 
	C477.447510,309.236572 490.875580,336.733856 499.164856,366.521423 
	C503.087921,380.618988 506.578491,394.847504 509.835999,409.114655 
	C511.215240,415.155609 511.490662,421.448578 512.633911,427.813507 
	C513.000000,436.354218 513.000000,444.708466 513.000000,453.531342 
z"/>
</svg>