<svg version="1.1" id="Layer_1" xmlns="http://www.w3.org/2000/svg" xmlns:xlink="http://www.w3.org/1999/xlink" x="0px" y="0px"
	 width="100%" viewBox="0 0 512 512" enable-background="new 0 0 512 512" xml:space="preserve">
<path fill="#FFFFFF" opacity="1.000000" stroke="none" 
	d="
M0.999999,80.000000 
	C1.000000,53.673317 1.000000,27.346638 1.000000,1.014967 
	C171.616898,1.009978 342.233795,1.009978 512.925354,1.009978 
	C512.925354,171.573761 512.925354,342.147583 512.925354,512.860718 
	C342.333405,512.860718 171.666718,512.860718 1.000000,512.860718 
	C1.000000,478.583374 1.000000,444.258667 1.365604,409.623993 
	C4.784456,427.041290 15.186449,439.560883 29.976528,449.293518 
	C30.380556,449.711792 30.689636,449.874695 31.001331,450.016998 
	C31.003948,449.996429 30.964819,450.010193 31.065027,450.315796 
	C31.778017,450.760406 32.390797,450.899384 33.004318,451.016968 
	C33.005062,450.995605 32.964989,451.010651 33.101006,451.346802 
	C34.827930,452.139435 36.418842,452.595947 38.007782,453.023682 
	C38.005810,452.994873 37.950191,453.010315 38.100929,453.353149 
	C40.173286,454.149109 42.094898,454.602295 44.010796,455.024719 
	C44.005081,454.993958 43.945118,455.011719 44.097088,455.350525 
	C46.109188,456.070343 47.969322,456.451324 50.241119,456.900391 
	C51.762371,457.025391 52.871960,457.082245 54.222816,457.492035 
	C55.459545,457.896637 56.455002,457.993469 57.450466,457.993561 
	C154.699951,458.000458 251.949448,458.000366 349.198944,457.995575 
	C350.361969,457.995544 351.526794,457.948853 352.683899,457.846466 
	C352.757355,457.839966 352.771088,457.158539 352.678467,456.506470 
	C326.855072,431.110260 316.126404,400.524658 324.606812,365.737000 
	C336.288635,317.816528 369.431030,294.030334 417.832428,290.237823 
	C417.832428,288.108582 417.832428,286.120911 417.903442,283.660950 
	C417.982880,220.566254 417.926270,157.943710 418.053406,95.321541 
	C418.079529,82.456154 415.935669,70.314865 408.772827,59.403713 
	C397.736694,42.592415 382.292633,32.244404 362.104584,32.170559 
	C260.677551,31.799538 159.248367,31.940397 57.820099,32.051811 
	C37.906235,32.073685 22.240967,41.200420 11.188253,57.299816 
	C6.569664,64.027252 4.324364,72.384033 0.999999,80.000000 
M404.926483,438.082489 
	C407.251465,440.352661 409.191833,443.450684 411.971558,444.742096 
	C421.362030,449.104675 431.109436,442.542847 431.268311,431.762451 
	C431.518799,414.766327 431.351227,397.764099 431.360443,380.764435 
	C431.361237,379.272827 431.360565,377.781250 431.360565,376.289642 
	C431.893036,376.084503 432.425476,375.879333 432.957947,375.674194 
	C435.035522,378.043274 436.985596,380.541107 439.219421,382.752350 
	C442.899841,386.395599 447.336700,387.912872 452.471039,386.469269 
	C462.839508,383.553955 465.901031,371.481934 458.154999,363.411438 
	C448.004242,352.835480 437.682739,342.421814 427.348389,332.024109 
	C421.790771,326.432373 413.085022,326.226929 407.626373,331.728851 
	C397.063202,342.375671 386.593689,353.119904 376.283264,364.011078 
	C370.971832,369.621765 371.224213,377.728424 376.386292,382.928040 
	C381.765015,388.345886 389.772095,388.396851 395.635864,382.867798 
	C398.024872,380.615173 400.092651,378.021912 402.306580,375.583618 
	C403.497925,377.786133 403.628662,379.368622 403.630188,380.951202 
	C403.645477,396.784363 403.590912,412.617767 403.682770,428.450409 
	C403.699951,431.413269 404.279144,434.372864 404.926483,438.082489 
z"/>
<path fill="#4A566E" opacity="1.000000" stroke="none" 
	d="
M0.999999,80.468658 
	C4.324364,72.384033 6.569664,64.027252 11.188253,57.299816 
	C22.240967,41.200420 37.906235,32.073685 57.820099,32.051811 
	C159.248367,31.940397 260.677551,31.799538 362.104584,32.170559 
	C382.292633,32.244404 397.736694,42.592415 408.772827,59.403713 
	C415.935669,70.314865 418.079529,82.456154 418.053406,95.321541 
	C417.926270,157.943710 417.982880,220.566254 417.621765,283.482666 
	C384.337738,250.991867 351.406464,218.207062 318.810883,185.756454 
	C277.144623,227.063660 235.450470,268.398499 193.186569,310.298187 
	C164.071594,281.174927 135.124054,252.219116 105.892952,222.979675 
	C104.510300,224.303177 103.064888,225.635162 101.676056,227.023743 
	C69.502151,259.191437 37.338409,291.369293 5.150637,323.523071 
	C3.878649,324.793701 2.388504,325.845978 1.000004,327.000000 
	C1.000000,244.979111 1.000000,162.958206 0.999999,80.468658 
M178.649719,138.000290 
	C160.797363,145.269867 151.544434,161.872635 155.045990,180.353043 
	C158.216370,197.085648 174.412384,210.437210 191.652222,209.832886 
	C207.326508,209.283478 219.192520,201.828110 225.282089,187.274597 
	C231.312943,172.861374 229.117340,158.997849 218.228546,147.490967 
	C207.548828,136.205048 194.324982,133.156799 178.649719,138.000290 
z"/>
<path fill="#00B594" opacity="1.000000" stroke="none" 
	d="
M1.000004,327.468658 
	C2.388504,325.845978 3.878649,324.793701 5.150637,323.523071 
	C37.338409,291.369293 69.502151,259.191437 101.676056,227.023743 
	C103.064888,225.635162 104.510300,224.303177 105.892952,222.979675 
	C135.124054,252.219116 164.071594,281.174927 193.186569,310.298187 
	C235.450470,268.398499 277.144623,227.063660 318.810883,185.756454 
	C351.406464,218.207062 384.337738,250.991867 417.550720,283.954956 
	C417.832428,286.120911 417.832428,288.108582 417.832428,290.237823 
	C369.431030,294.030334 336.288635,317.816528 324.606812,365.737000 
	C316.126404,400.524658 326.855072,431.110260 352.227356,456.540680 
	C255.096649,456.865875 158.282883,456.870300 61.469112,456.889465 
	C58.973240,456.889954 56.477402,457.052246 53.981548,457.139099 
	C52.871960,457.082245 51.762371,457.025391 50.180519,456.543335 
	C47.787209,455.749359 45.866161,455.380554 43.945118,455.011719 
	C43.945118,455.011719 44.005081,454.993958 43.827190,454.709442 
	C41.749599,453.953369 39.849899,453.481842 37.950195,453.010315 
	C37.950191,453.010315 38.005810,452.994873 37.872749,452.684631 
	C36.148125,451.919800 34.556557,451.465240 32.964989,451.010651 
	C32.964989,451.010651 33.005062,450.995605 32.911285,450.698364 
	C32.199951,450.270844 31.582386,450.140503 30.964821,450.010193 
	C30.964819,450.010193 31.003948,449.996429 30.963497,449.725281 
	C30.575891,449.315491 30.228737,449.176819 29.881580,449.038147 
	C15.186449,439.560883 4.784456,427.041290 1.365604,409.157013 
	C1.000000,381.979095 1.000000,354.958221 1.000004,327.468658 
z"/>
<path fill="#01B595" opacity="1.000000" stroke="none" 
	d="
M404.762695,437.708252 
	C404.279144,434.372864 403.699951,431.413269 403.682770,428.450409 
	C403.590912,412.617767 403.645477,396.784363 403.630188,380.951202 
	C403.628662,379.368622 403.497925,377.786133 402.306580,375.583618 
	C400.092651,378.021912 398.024872,380.615173 395.635864,382.867798 
	C389.772095,388.396851 381.765015,388.345886 376.386292,382.928040 
	C371.224213,377.728424 370.971832,369.621765 376.283264,364.011078 
	C386.593689,353.119904 397.063202,342.375671 407.626373,331.728851 
	C413.085022,326.226929 421.790771,326.432373 427.348389,332.024109 
	C437.682739,342.421814 448.004242,352.835480 458.154999,363.411438 
	C465.901031,371.481934 462.839508,383.553955 452.471039,386.469269 
	C447.336700,387.912872 442.899841,386.395599 439.219421,382.752350 
	C436.985596,380.541107 435.035522,378.043274 432.957947,375.674194 
	C432.425476,375.879333 431.893036,376.084503 431.360565,376.289642 
	C431.360565,377.781250 431.361237,379.272827 431.360443,380.764435 
	C431.351227,397.764099 431.518799,414.766327 431.268311,431.762451 
	C431.109436,442.542847 421.362030,449.104675 411.971558,444.742096 
	C409.191833,443.450684 407.251465,440.352661 404.762695,437.708252 
z"/>
<path fill="#4A566E" opacity="1.000000" stroke="none" 
	d="
M54.222816,457.492004 
	C56.477402,457.052246 58.973240,456.889954 61.469112,456.889465 
	C158.282883,456.870300 255.096649,456.865875 352.361511,456.825317 
	C352.771088,457.158539 352.757355,457.839966 352.683899,457.846466 
	C351.526794,457.948853 350.361969,457.995544 349.198944,457.995575 
	C251.949448,458.000366 154.699951,458.000458 57.450466,457.993561 
	C56.455002,457.993469 55.459545,457.896637 54.222816,457.492004 
z"/>
<path fill="#3F6474" opacity="1.000000" stroke="none" 
	d="
M44.097088,455.350525 
	C45.866161,455.380554 47.787209,455.749359 49.768856,456.475220 
	C47.969322,456.451324 46.109188,456.070343 44.097088,455.350525 
z"/>
<path fill="#3F6474" opacity="1.000000" stroke="none" 
	d="
M38.100937,453.353119 
	C39.849899,453.481842 41.749599,453.953369 43.832909,454.740173 
	C42.094898,454.602295 40.173286,454.149109 38.100937,453.353119 
z"/>
<path fill="#3F6474" opacity="1.000000" stroke="none" 
	d="
M33.101006,451.346802 
	C34.556557,451.465240 36.148125,451.919800 37.874722,452.713440 
	C36.418842,452.595947 34.827930,452.139435 33.101006,451.346802 
z"/>
<path fill="#3F6474" opacity="1.000000" stroke="none" 
	d="
M31.065029,450.315796 
	C31.582386,450.140503 32.199951,450.270844 32.910545,450.719757 
	C32.390797,450.899384 31.778017,450.760406 31.065029,450.315796 
z"/>
<path fill="#3F6474" opacity="1.000000" stroke="none" 
	d="
M29.976528,449.293518 
	C30.228737,449.176819 30.575891,449.315491 30.960880,449.745850 
	C30.689636,449.874695 30.380556,449.711792 29.976528,449.293518 
z"/>
<path fill="#FECB04" opacity="1.000000" stroke="none" 
	d="
M179.036133,137.902710 
	C194.324982,133.156799 207.548828,136.205048 218.228546,147.490967 
	C229.117340,158.997849 231.312943,172.861374 225.282089,187.274597 
	C219.192520,201.828110 207.326508,209.283478 191.652222,209.832886 
	C174.412384,210.437210 158.216370,197.085648 155.045990,180.353043 
	C151.544434,161.872635 160.797363,145.269867 179.036133,137.902710 
z"/>
</svg>